<svg xmlns="http://www.w3.org/2000/svg" xmlns:xlink="http://www.w3.org/1999/xlink" width="32" height="32" version="1.1" viewBox="0 0 32 32"><title>answer</title><desc>Created with Sketch.</desc><g id="====slice====" fill="none" fill-rule="evenodd" stroke="none" stroke-width="1"><g id="Artboard" fill-rule="nonzero" transform="translate(-235.000000, -123.000000)"><g id="Group-3" transform="translate(234.000000, 123.000000)"><g id="左侧图标" fill="#000" opacity=".801"><g id="左侧图标-copy-2"><path id="Combined-Shape" d="M16,27.7333333 C22.4801411,27.7333333 27.7333333,22.4801411 27.7333333,16 C27.7333333,9.51985894 22.4801411,4.26666667 16,4.26666667 C9.51985894,4.26666667 4.26666667,9.51985894 4.26666667,16 C4.26666667,22.4801411 9.51985894,27.7333333 16,27.7333333 Z M16,29.3333333 C8.63620334,29.3333333 2.66666667,23.3637967 2.66666667,16 C2.66666667,8.63620334 8.63620334,2.66666667 16,2.66666667 C23.3637967,2.66666667 29.3333333,8.63620334 29.3333333,16 C29.3333333,23.3637967 23.3637967,29.3333333 16,29.3333333 Z"/></g></g><g id="Group" fill="#313131" transform="translate(11.000000, 11.000000)"><rect id="Rectangle" width="7" height="1.6" x="0" y="8"/><rect id="Rectangle-Copy-2" width="10" height="1.6" x="0" y="4"/><rect id="Rectangle-Copy-3" width="10" height="1.6" x="0" y="0"/></g></g></g></g></svg>